<svg xmlns="http://www.w3.org/2000/svg" width="26.036" height="26.036" viewBox="0 0 26.036 26.036">
  <g id="Path_41" data-name="Path 41" transform="translate(0 7.492) rotate(-22)" fill="none" stroke-linecap="round">
    <path d="M1.9,0H18.1A1.9,1.9,0,0,1,20,1.9V18.1A1.9,1.9,0,0,1,18.1,20H1.9A1.9,1.9,0,0,1,0,18.1V1.9A1.9,1.9,0,0,1,1.9,0Z" stroke="none"/>
    <path d="M 4 4 L 4 16 L 16 16 L 16 4 L 4 4 M 1.904760360717773 0 L 18.09523963928223 0 C 19.14720916748047 0 20 0.8527908325195312 20 1.904760360717773 L 20 18.09523963928223 C 20 19.14720916748047 19.14720916748047 20 18.09523963928223 20 L 1.904760360717773 20 C 0.8527908325195312 20 0 19.14720916748047 0 18.09523963928223 L 0 1.904760360717773 C 0 0.8527908325195312 0.8527908325195312 0 1.904760360717773 0 Z" stroke="none" fill="#6699eb"/>
  </g>
</svg>
