<svg xmlns="http://www.w3.org/2000/svg" width="85.663" height="14.822" viewBox="0 0 85.663 14.822">
  <path id="Path_31" data-name="Path 31" d="M-12206.619,2678.148s8.307-3.47,14.043-2.426,11.581,1.679,12.742,4.752a3.784,3.784,0,0,1-1.978,4.806c-1.747.891-5.432.67-6.427-.69-1.479-.838-4.184-5.843,2.4-7.79s13.84-2.5,20.854,0,7.6,6.858,4.052,8.48-8.609-.2-7.918-4.2,7.641-5.671,14.877-5.849a34.551,34.551,0,0,1,12.629,2.016s5.97,3.073,4.221,6.321-5.482,2.371-7.993,1.017a3.491,3.491,0,0,1-1.237-5.475c1.264-1.7,9.549-3.053,14.867-3.39s5.582,1.078,5.582,1.078" transform="translate(12209.235 -2673.111)" fill="none" stroke="#6699eb" stroke-linecap="round" stroke-linejoin="round" stroke-width="4"/>
</svg>
