<svg xmlns="http://www.w3.org/2000/svg" width="28.251" height="28.251" viewBox="0 0 28.251 28.251">
  <g id="Path_35" data-name="Path 35" transform="translate(13.617 -2.44) rotate(45)" fill="none">
    <path d="M10.317,2.983a2.032,2.032,0,0,1,3.511,0l8.561,14.7a2.032,2.032,0,0,1-1.756,3.055H3.512a2.032,2.032,0,0,1-1.756-3.055Z" stroke="none"/>
    <path d="M 12.07254695892334 7.91544246673584 L 6.935674667358398 16.73392295837402 L 17.20941925048828 16.73392295837402 L 12.07254695892334 7.91544246673584 M 12.07254123687744 1.973445892333984 C 12.7544527053833 1.973445892333984 13.43636512756348 2.30982780456543 13.82825946807861 2.98259162902832 L 22.38928985595703 17.67932319641113 C 23.1783390045166 19.03389358520508 22.20120048522949 20.73392295837402 20.63356971740723 20.73392295837402 L 3.511529922485352 20.73392295837402 C 1.943899154663086 20.73392295837402 0.9667606353759766 19.03389358520508 1.755809783935547 17.67932319641113 L 10.31682968139648 2.98259162902832 C 10.70872020721436 2.30982780456543 11.39062976837158 1.973445892333984 12.07254123687744 1.973445892333984 Z" stroke="none" fill="#f75763"/>
  </g>
</svg>
